<?xml version="1.0" encoding="UTF-8" standalone="no"?>
<!-- Created with Inkscape (http://www.inkscape.org/) -->

<svg
   xmlns:dc="http://purl.org/dc/elements/1.1/"
   xmlns:cc="http://creativecommons.org/ns#"
   xmlns:rdf="http://www.w3.org/1999/02/22-rdf-syntax-ns#"
   xmlns:svg="http://www.w3.org/2000/svg"
   xmlns="http://www.w3.org/2000/svg"
   xmlns:sodipodi="http://sodipodi.sourceforge.net/DTD/sodipodi-0.dtd"
   xmlns:inkscape="http://www.inkscape.org/namespaces/inkscape"
   id="svg2"
   version="1.1"
   inkscape:version="0.48.3.1 r9886"
   width="386.25"
   height="125"
   xml:space="preserve"
   sodipodi:docname="wechat.svg"><metadata
     id="metadata8"><rdf:RDF><cc:Work
         rdf:about=""><dc:format>image/svg+xml</dc:format><dc:type
           rdf:resource="http://purl.org/dc/dcmitype/StillImage" /></cc:Work></rdf:RDF></metadata><defs
     id="defs6"><clipPath
       clipPathUnits="userSpaceOnUse"
       id="clipPath3054"><rect
         style="opacity:0.3;fill:#000000;fill-opacity:1;fill-rule:nonzero;stroke:#000000;stroke-width:0.80000001;stroke-linecap:butt;stroke-linejoin:bevel;stroke-miterlimit:4;stroke-opacity:1;stroke-dasharray:none"
         id="rect3056"
         width="100.9269"
         height="89.65316"
         x="10.715833"
         y="-94.484756"
         transform="scale(1,-1)" /></clipPath><clipPath
       clipPathUnits="userSpaceOnUse"
       id="clipPath3054-7"><rect
         style="opacity:0.3;fill:#000000;fill-opacity:1;fill-rule:nonzero;stroke:#000000;stroke-width:0.80000001;stroke-linecap:butt;stroke-linejoin:bevel;stroke-miterlimit:4;stroke-opacity:1;stroke-dasharray:none"
         id="rect3056-4"
         width="100.9269"
         height="89.65316"
         x="10.715833"
         y="-94.484756"
         transform="scale(1,-1)" /></clipPath><clipPath
       clipPathUnits="userSpaceOnUse"
       id="clipPath3054-6"><rect
         style="opacity:0.3;fill:#000000;fill-opacity:1;fill-rule:nonzero;stroke:#000000;stroke-width:0.80000001;stroke-linecap:butt;stroke-linejoin:bevel;stroke-miterlimit:4;stroke-opacity:1;stroke-dasharray:none"
         id="rect3056-44"
         width="100.9269"
         height="89.65316"
         x="10.715833"
         y="-94.484756"
         transform="scale(1,-1)" /></clipPath></defs><sodipodi:namedview
     pagecolor="#ffffff"
     bordercolor="#666666"
     borderopacity="1"
     objecttolerance="10"
     gridtolerance="10"
     guidetolerance="10"
     inkscape:pageopacity="0"
     inkscape:pageshadow="2"
     inkscape:window-width="1855"
     inkscape:window-height="1176"
     id="namedview4"
     showgrid="false"
     inkscape:zoom="1.4901875"
     inkscape:cx="180.38679"
     inkscape:cy="17.272487"
     inkscape:window-x="65"
     inkscape:window-y="24"
     inkscape:window-maximized="1"
     inkscape:current-layer="g10" /><g
     id="g10"
     inkscape:groupmode="layer"
     inkscape:label="ink_ext_XXXXXX"
     transform="matrix(1.25,0,0,-1.25,0,125)"><path
       inkscape:connector-curvature="0"
       id="path14-9-7"
       style="fill:#2a2c2d;fill-opacity:1;fill-rule:nonzero;stroke:none"
       d="M 0,0 309,0 309,100 0,100 0,0 z"
       clip-path="url(#clipPath3054-6)"
       transform="matrix(1.4280801,0,0,1.4280801,331.49892,-21.389033)" /><path
       inkscape:connector-curvature="0"
       id="path14"
       style="fill:#2a2c2d;fill-opacity:1;fill-rule:nonzero;stroke:none"
       d="M 0,0 309,0 309,100 0,100 0,0 z" /><path
       inkscape:connector-curvature="0"
       id="path16"
       style="fill:#ffffff;fill-opacity:1;fill-rule:nonzero;stroke:none"
       d="m 196.663,63.968 c 6.076,1.466 13.467,0.1011 17.434,-5.0852 1.686,-2.0336 2.406,-4.6273 3.033,-7.1441 -2.669,-0.0422 -5.348,-0.0422 -8.017,-0.0422 -1.161,5.7453 -9.051,8.043 -13.238,4.1097 -2.95,-3.2121 -3.483,-7.9835 -2.873,-12.1453 0.652,-3.1941 1.941,-6.9058 5.237,-8.2289 4.697,-1.7535 10.246,1.3739 10.874,6.4328 2.721,0 5.45,0.009 8.178,-0.0507 -0.567,-4.8649 -2.915,-9.9325 -7.678,-11.9246 -7.39,-3.2118 -17.975,-2.2543 -22.257,5.3988 0.68,3.1183 1.443,6.3644 0.739,9.5515 -0.399,2.3555 -1.627,4.4321 -2.39,6.6696 -0.017,6.0851 5.203,11.2547 10.958,12.4586 l 0,0" /><path
       inkscape:connector-curvature="0"
       id="path18"
       style="fill:#94d222;fill-opacity:1;fill-rule:nonzero;stroke:none"
       d="m 115.278,63.0781 c 2.923,0.0254 5.847,0.0254 8.771,0.0336 1.738,-7.6691 2.703,-15.5172 4.822,-23.1023 2.127,6.2886 3.11,12.8906 4.917,19.2722 0.532,1.9317 2.05,3.9743 4.27,3.8301 2.407,0.2883 4.044,-1.9406 4.535,-4.0418 1.728,-6.2719 2.864,-12.7043 4.788,-18.9344 2.212,7.5176 3.425,15.2727 5.044,22.9344 2.854,0.0336 5.703,0.0336 8.559,0.0082 -2.39,-9.6191 -5.093,-19.1535 -7.544,-28.7554 -0.601,-2.3907 -1.652,-5.1192 -4.211,-6.0008 -2.899,-0.6614 -5.527,1.6433 -6.23,4.3301 -1.804,5.764 -3.11,11.6792 -4.89,17.4593 -1.431,-5.7461 -2.898,-11.475 -4.475,-17.1793 -0.593,-2.5508 -2.83,-5.1691 -5.703,-4.6617 -2.772,0.3141 -4.137,3.0688 -4.745,5.4754 -2.62,9.7801 -5.29,19.5523 -7.908,29.3324 l 0,0" /><path
       inkscape:connector-curvature="0"
       id="path20"
       style="fill:#ffffff;fill-opacity:1;fill-rule:nonzero;stroke:none"
       d="m 219.062,63.0859 c 2.62,0.0094 5.247,0.0094 7.866,0.0176 -0.018,-2.8816 -0.043,-5.7629 0.185,-8.6277 4.213,-0.2965 8.832,0.8988 12.713,-1.2375 3.348,-1.7957 5.28,-5.5934 5.255,-9.3395 0.052,-5.2125 -0.017,-10.4238 0.008,-15.6449 -2.551,-0.0172 -5.093,-0.0254 -7.636,-0.0332 -0.051,5.0082 0.06,10.0172 -0.024,15.0254 0.1,1.6949 -1.103,3.4668 -2.849,3.6617 -2.542,0.3219 -5.11,0.152 -7.661,0.1016 0.017,-6.2543 0.009,-12.5172 0.009,-18.7809 -2.619,0.0082 -5.239,0.0082 -7.857,0.0082 -0.009,11.6192 0.009,23.2305 -0.009,34.8492 l 0,0" /><path
       inkscape:connector-curvature="0"
       id="path22"
       style="fill:#ffffff;fill-opacity:1;fill-rule:nonzero;stroke:none"
       d="m 279.32,63.0953 c 2.483,0 4.966,0 7.45,0 -0.008,-2.6195 -0.008,-5.2297 -0.018,-7.848 1.992,0 3.983,0 5.984,-0.009 -0.008,-1.9321 -0.008,-3.8731 -0.008,-5.8047 -2.018,0 -4.026,0 -6.044,0 0.154,-4.4246 -0.33,-8.8988 0.255,-13.3063 1.339,-1.6527 3.704,-1.4156 5.593,-1.9488 -0.025,-1.975 -0.033,-3.9496 -0.033,-5.9324 -4.28,-0.0938 -10.128,-0.6531 -12.323,4 -1.891,5.4828 -0.475,11.4836 -0.899,17.1699 -1.915,0.0176 -3.831,0.0258 -5.746,0.0512 0,1.9156 -0.009,3.8308 -0.009,5.7375 1.933,0.0254 3.866,0.0426 5.806,0.0512 -0.008,2.6097 -0.008,5.2199 -0.008,7.8394 l 0,0" /><path
       inkscape:connector-curvature="0"
       id="path24"
       style="fill:#94d222;fill-opacity:1;fill-rule:nonzero;stroke:none"
       d="m 165.839,45.1445 c 0.874,2.6703 3.077,5.0008 6.137,4.5176 3.016,0.491 5.067,-1.941 5.915,-4.5258 -4.017,-0.1183 -8.035,-0.1097 -12.052,0.0082 z m 19.646,-5.2289 c 0.136,5.0086 -0.975,10.6614 -5.408,13.6621 -5.797,3.686 -15.076,3.1864 -18.983,-3.0425 -3.264,-5.4922 -3.441,-13.2719 0.982,-18.2129 4.237,-4.7875 11.747,-5.043 17.297,-2.6446 3.061,1.2461 4.747,4.2211 5.9,7.136 -2.442,0.0758 -4.881,0.0933 -7.323,0.034 -2.161,-2.5672 -5.974,-3.6016 -9,-1.9915 -1.924,0.9321 -2.313,3.1864 -2.916,4.9997 6.484,0.1019 12.967,0.0093 19.451,0.0597" /><path
       inkscape:connector-curvature="0"
       id="path26"
       style="fill:#ffffff;fill-opacity:1;fill-rule:nonzero;stroke:none"
       d="m 254.701,35.3562 c -0.356,1.3391 0.405,2.5598 0.847,3.7543 3.033,0.6868 6.152,0.7797 9.263,0.7122 0.016,-2.1274 0.016,-4.2465 0.008,-6.3735 -3.373,0.2117 -7.509,-0.8562 -10.118,1.907 z m 17.542,11.1614 c -0.152,4.6355 -4.246,8.2969 -8.712,8.7722 -4.425,0.4567 -9.432,0.4567 -13.086,-2.4753 -1.94,-1.4063 -2.558,-3.8223 -3.059,-6.0336 2.28,-0.0598 4.56,-0.068 6.847,-0.0512 1.297,3.8816 6.374,4.3734 9.424,2.3726 1.154,-0.9656 1.052,-2.5929 1.382,-3.9402 -4.779,-0.1871 -10.034,0.7371 -14.28,-2.0168 -4.042,-2.3738 -4.78,-8.1957 -2.432,-11.993 1.644,-2.466 4.857,-2.9238 7.593,-2.9156 5.458,-0.0254 10.916,0.0094 16.374,0 -0.051,6.1024 0.102,12.1965 -0.051,18.2809" /><path
       inkscape:connector-curvature="0"
       id="path28"
       style="fill:#94d222;fill-opacity:1;fill-rule:nonzero;stroke:none"
       d="m 64.643,69.6914 c 0.03,-3.818 -5.0539,-6.1976 -7.9149,-3.6051 -2.9676,2.1215 -2.1265,7.2914 1.3574,8.3653 3.1141,1.2254 6.8,-1.4028 6.5575,-4.7602 z M 40.5953,68.7297 c -0.6887,-3.3172 -5.1348,-4.9172 -7.7324,-2.6942 -3.0078,2.1215 -2.1672,7.393 1.3719,8.4512 3.4632,1.3371 7.4035,-2.1824 6.3605,-5.757 z m 26.5391,15.3582 c -9.9,5.5754 -22.2399,6.4156 -32.8942,2.5676 C 27.2422,84.1332 20.9023,79.4492 16.9879,73.0688 13.4387,67.3164 12.1062,60.141 13.823,53.5586 c 1.7168,-7.307 6.7805,-13.4293 12.9481,-17.5211 -1.1598,-3.3727 -2.3043,-6.7449 -3.3824,-10.1422 3.8988,2.0258 7.7523,4.1375 11.6363,6.1985 4.684,-1.4997 9.6059,-2.2188 14.523,-2.061 -1.2812,3.7567 -1.5851,7.8031 -1.0027,11.7227 0.9317,5.4383 3.8735,10.4156 7.9402,14.107 6.8461,6.4105 16.5532,9.1195 25.7887,8.4668 -1.7258,8.4668 -7.6762,15.6269 -15.1398,19.7586" /><path
       inkscape:connector-curvature="0"
       id="path30"
       style="fill:#ffffff;fill-opacity:1;fill-rule:nonzero;stroke:none"
       d="m 93.0406,44.0742 c -0.998,-2.3301 -4.4871,-2.8656 -6.2086,-1.064 -0.8347,0.75 -1.0382,1.889 -1.3718,2.8964 0.4457,1.8129 1.6554,3.7024 3.716,3.7832 2.8515,0.3903 5.3527,-3.0687 3.8644,-5.6156 z m -19.0347,0.359 C 73.1855,41.8461 69.4133,41.066 67.6,43.041 c -2.0055,1.818 -1.2254,5.6313 1.4023,6.441 2.9223,1.2309 6.2844,-2.1312 5.0036,-5.0488 z m 32.5191,2.0918 c -2.416,5.4734 -6.9781,9.8086 -12.2695,12.4922 -9.343,4.7394 -20.9688,4.7039 -30.2809,-0.1113 C 57.498,55.5793 52.0945,49.6238 50.5559,42.3773 49.2895,37.0453 50.4285,31.3031 53.2543,26.65 57.4672,19.6664 65.073,15.2109 72.9879,13.7781 c 5.7324,-1.1648 11.6566,-0.4816 17.2223,1.1395 3.3312,-1.302 6.3191,-3.3985 9.5543,-4.94807 -0.8297,2.79567 -1.7161,5.58087 -2.6727,8.33517 3.6202,2.5875 6.9222,5.7976 8.9072,9.8391 2.952,5.6253 3.128,12.5933 0.526,18.3812" /><path
       inkscape:connector-curvature="0"
       id="path14-9"
       style="fill:#2a2c2d;fill-opacity:1;fill-rule:nonzero;stroke:none"
       d="M 0,0 309,0 309,100 0,100 0,0 z"
       clip-path="url(#clipPath3054)"
       transform="translate(-151.36928,109.78485)" /><path
       inkscape:connector-curvature="0"
       id="path28-5"
       style="fill:#94d222;fill-opacity:1;fill-rule:nonzero;stroke:none"
       d="m -86.726276,179.47625 c 0.03,-3.818 -5.0539,-6.1976 -7.9149,-3.6051 -2.9676,2.1215 -2.1265,7.2914 1.3574,8.3653 3.1141,1.2254 6.8,-1.4028 6.5575,-4.7602 z m -24.047694,-0.9617 c -0.6887,-3.3172 -5.1348,-4.9172 -7.7324,-2.6942 -3.0078,2.1215 -2.1672,7.393 1.3719,8.4512 3.4632,1.3371 7.4035,-2.1824 6.3605,-5.757 z m 26.539094,15.3582 c -9.9,5.5754 -22.239894,6.4156 -32.894194,2.5676 -6.998,-2.5223 -13.3379,-7.2063 -17.25231,-13.5867 -3.5492,-5.7524 -4.8817,-12.9278 -3.1649,-19.5102 1.7168,-7.307 6.7805,-13.4293 12.94811,-17.5211 -1.1598,-3.3727 -2.3043,-6.7449 -3.3824,-10.1422 3.8988,2.0258 7.7523,4.1375 11.6363,6.1985 4.684,-1.4997 9.6059,-2.2188 14.523,-2.061 -1.2812,3.7567 -1.5851,7.8031 -1.0027,11.7227 0.9317,5.4383 3.873494,10.4156 7.940194,14.107 6.8461,6.4105 16.5532,9.1195 25.7887,8.4668 -1.7258,8.4668 -7.6762,15.6269 -15.1398,19.7586" /><path
       inkscape:connector-curvature="0"
       id="path30-0"
       style="fill:#ffffff;fill-opacity:1;fill-rule:nonzero;stroke:none"
       d="m -58.328676,153.85905 c -0.998,-2.3301 -4.4871,-2.8656 -6.2086,-1.064 -0.8347,0.75 -1.0382,1.889 -1.3718,2.8964 0.4457,1.8129 1.6554,3.7024 3.716,3.7832 2.851504,0.3903 5.352704,-3.0687 3.8644,-5.6156 z m -19.0347,0.359 c -0.8204,-2.5871 -4.5926,-3.3672 -6.4059,-1.3922 -2.0055,1.818 -1.2254,5.6313 1.4023,6.441 2.9223,1.2309 6.2844,-2.1312 5.0036,-5.0488 z m 32.5191,2.0918 c -2.416,5.4734 -6.978096,9.8086 -12.269496,12.4922 -9.343004,4.7394 -20.968804,4.7039 -30.280904,-0.1113 -6.4766,-3.3266 -11.8801,-9.2821 -13.418694,-16.5286 -1.2664,-5.332 -0.1274,-11.0742 2.698394,-15.7273 4.2129,-6.9836 11.8187,-11.4391 19.7336,-12.8719 5.7324,-1.1648 11.6566,-0.4816 17.2223,1.1395 3.3312,-1.302 6.319104,-3.3985 9.554304,-4.94807 -0.829704,2.79567 -1.716104,5.58087 -2.672704,8.33517 3.6202,2.5875 6.9222,5.7976 8.9072,9.8391 2.952,5.6253 3.128,12.5933 0.526,18.3812" /><path
       inkscape:connector-curvature="0"
       id="path28-5-7"
       style="fill:#94d222;fill-opacity:1;fill-rule:nonzero;stroke:none"
       d="m -87.336384,62.070035 c 0.03,-3.818 -5.0539,-6.1976 -7.9149,-3.6051 -2.9676,2.1215 -2.1265,7.2914 1.3574,8.3653 3.1141,1.2254 6.8,-1.4028 6.5575,-4.7602 z m -24.047696,-0.9617 c -0.6887,-3.3172 -5.1348,-4.9172 -7.7324,-2.6942 -3.0078,2.1215 -2.1672,7.393 1.3719,8.4512 3.4632,1.3371 7.4035,-2.1824 6.3605,-5.757 z m 26.539096,15.3582 c -9.9,5.57541 -22.239896,6.41561 -32.894196,2.5676 -6.998,-2.5223 -13.3379,-7.2063 -17.2523,-13.5867 -3.5492,-5.7524 -4.8817,-12.9278 -3.1649,-19.5102 1.7168,-7.307 6.7805,-13.429299 12.9481,-17.521099 -1.1598,-3.372699 -2.3043,-6.744899 -3.3824,-10.142199 3.8988,2.0258 7.7523,4.1375 11.6363,6.1985 4.684,-1.4997 9.6059,-2.2188 14.523,-2.061 -1.2812,3.7567 -1.5851,7.803099 -1.0027,11.722698 0.9317,5.4383 3.873496,10.4156 7.940196,14.107 6.8461,6.4105 16.5532,9.1195 25.7887,8.4668 -1.7258,8.4668 -7.6762,15.6269 -15.1398,19.7586" /><path
       inkscape:connector-curvature="0"
       id="path30-0-6"
       style="fill:#ffffff;fill-opacity:1;fill-rule:nonzero;stroke:none"
       d="m -58.938784,36.452835 c -0.998,-2.3301 -4.4871,-2.8656 -6.2086,-1.064 -0.8347,0.75 -1.0382,1.889 -1.3718,2.8964 0.4457,1.8129 1.6554,3.7024 3.716,3.7832 2.85151,0.3903 5.35271,-3.0687 3.8644,-5.6156 z m -19.0347,0.359 c -0.8204,-2.5871 -4.5926,-3.3672 -6.4059,-1.3922 -2.0055,1.818 -1.2254,5.6313 1.4023,6.441 2.9223,1.2309 6.2844,-2.1312 5.0036,-5.0488 z m 32.5191,2.0918 c -2.416,5.4734 -6.97809,9.8086 -12.26949,12.4922 -9.34301,4.7394 -20.96881,4.7039 -30.28091,-0.1113 -6.4766,-3.3266 -11.8801,-9.2821 -13.418696,-16.5286 -1.2664,-5.331999 -0.1274,-11.074198 2.698396,-15.727298 4.2129,-6.9836 11.8187,-11.4390995 19.7336,-12.8719025 5.7324,-1.1648 11.6566,-0.4816 17.2223,1.139503 3.3312,-1.301999 6.31911,-3.398503 9.55431,-4.948071 -0.82971,2.795672 -1.71611,5.580871 -2.67271,8.3351705 3.6202,2.5875 6.9222,5.7976 8.9072,9.8391 2.952,5.6253 3.128,12.593299 0.526,18.381198" /><path
       inkscape:connector-curvature="0"
       id="path16-5"
       style="fill:#ffffff;fill-opacity:1;fill-rule:nonzero;stroke:none"
       d="m -119.0078,-41.424404 c 6.076,1.466001 13.467,0.1011 17.434,-5.0852 1.685997,-2.0336 2.405997,-4.6273 3.032997,-7.1441 -2.668997,-0.0422 -5.347997,-0.0422 -8.016997,-0.0422 -1.161,5.7453 -9.051,8.043 -13.238,4.1097 -2.95,-3.2121 -3.483,-7.9835 -2.873,-12.1453 0.652,-3.1941 1.941,-6.9058 5.237,-8.2289 4.697,-1.7535 10.246,1.3739 10.874,6.4328 2.721,0 5.45,0.009 8.177997,-0.0507 -0.567,-4.8649 -2.914997,-9.9325 -7.677997,-11.9246 -7.39,-3.2118 -17.975,-2.2543 -22.257,5.3988 0.68,3.1183 1.443,6.3644 0.739,9.5515 -0.399,2.3555 -1.627,4.4321 -2.39,6.6696 -0.017,6.085104 5.203,11.254704 10.958,12.458604 l 0,0" /><path
       inkscape:connector-curvature="0"
       id="path18-4"
       style="fill:#94d222;fill-opacity:1;fill-rule:nonzero;stroke:none"
       d="m -200.3928,-42.314304 c 2.923,0.0254 5.847,0.0254 8.771,0.0336 1.738,-7.6691 2.703,-15.5172 4.822,-23.1023 2.127,6.2886 3.11,12.8906 4.917,19.2722 0.532,1.9317 2.05,3.9743 4.27,3.8301 2.407,0.2883 4.044,-1.9406 4.535,-4.0418 1.728,-6.2719 2.864,-12.7043 4.788,-18.9344 2.212,7.5176 3.425,15.2727 5.044,22.9344 2.854,0.0336 5.703,0.0336 8.559,0.0082 -2.39,-9.6191 -5.093,-19.1535 -7.544,-28.7554 -0.601,-2.3907 -1.652,-5.1192 -4.211,-6.0008 -2.899,-0.6614 -5.527,1.6433 -6.23,4.3301 -1.804,5.764 -3.11,11.6792 -4.89,17.4593 -1.431,-5.7461 -2.898,-11.475 -4.475,-17.1793 -0.593,-2.5508 -2.83,-5.1691 -5.703,-4.6617 -2.772,0.3141 -4.137,3.0688 -4.745,5.4754 -2.62,9.7801 -5.29,19.5523 -7.908,29.3324 l 0,0" /><path
       inkscape:connector-curvature="0"
       id="path20-7"
       style="fill:#ffffff;fill-opacity:1;fill-rule:nonzero;stroke:none"
       d="m -96.608803,-42.306504 c 2.62,0.0094 5.247,0.0094 7.866,0.0176 -0.018,-2.8816 -0.043,-5.7629 0.185,-8.6277 4.213,-0.2965 8.832,0.8988 12.713,-1.2375 3.348,-1.7957 5.28,-5.5934 5.255,-9.3395 0.052,-5.2125 -0.017,-10.4238 0.008,-15.6449 -2.551,-0.0172 -5.093,-0.0254 -7.636,-0.0332 -0.051,5.0082 0.06,10.0172 -0.024,15.0254 0.1,1.6949 -1.103,3.4668 -2.849,3.6617 -2.542,0.3219 -5.11,0.152 -7.661,0.1016 0.017,-6.2543 0.009,-12.5172 0.009,-18.7809 -2.619,0.0082 -5.239,0.0082 -7.857,0.0082 -0.009,11.6192 0.009,23.2305 -0.009,34.8492 l 0,0" /><path
       inkscape:connector-curvature="0"
       id="path22-6"
       style="fill:#ffffff;fill-opacity:1;fill-rule:nonzero;stroke:none"
       d="m -36.350805,-42.297104 c 2.483,0 4.966,0 7.45,0 -0.008,-2.6195 -0.008,-5.2297 -0.018,-7.848 1.992,0 3.983,0 5.984,-0.009 -0.008,-1.9321 -0.008,-3.8731 -0.008,-5.8047 -2.018,0 -4.026,0 -6.044,0 0.154,-4.4246 -0.33,-8.8988 0.255,-13.3063 1.339,-1.6527 3.704,-1.4156 5.593,-1.9488 -0.025,-1.975 -0.033,-3.9496 -0.033,-5.9324 -4.28,-0.0938 -10.128,-0.6531 -12.323,4 -1.891,5.4828 -0.475,11.4836 -0.899,17.1699 -1.915,0.0176 -3.831,0.0258 -5.746,0.0512 0,1.9156 -0.009,3.8308 -0.009,5.7375 1.933,0.0254 3.866,0.0426 5.806,0.0512 -0.008,2.6097 -0.008,5.2199 -0.008,7.8394 l 0,0" /><path
       inkscape:connector-curvature="0"
       id="path24-7"
       style="fill:#94d222;fill-opacity:1;fill-rule:nonzero;stroke:none"
       d="m -149.8318,-60.247904 c 0.874,2.6703 3.077,5.0008 6.137,4.5176 3.016,0.491 5.067,-1.941 5.915,-4.5258 -4.017,-0.1183 -8.035,-0.1097 -12.052,0.0082 z m 19.646,-5.2289 c 0.136,5.0086 -0.975,10.6614 -5.408,13.6621 -5.797,3.686 -15.076,3.1864 -18.983,-3.0425 -3.264,-5.4922 -3.441,-13.2719 0.982,-18.2129 4.237,-4.7875 11.747,-5.043 17.297,-2.6446 3.061,1.2461 4.747,4.2211 5.9,7.136 -2.442,0.0758 -4.881,0.0933 -7.323,0.034 -2.161,-2.5672 -5.974,-3.6016 -9,-1.9915 -1.924,0.9321 -2.313,3.1864 -2.916,4.9997 6.484,0.1019 12.967,0.0093 19.451,0.0597" /><path
       inkscape:connector-curvature="0"
       id="path26-4"
       style="fill:#ffffff;fill-opacity:1;fill-rule:nonzero;stroke:none"
       d="m -60.969803,-70.036204 c -0.356,1.3391 0.405,2.5598 0.847,3.7543 3.033,0.6868 6.152,0.7797 9.263,0.7122 0.016,-2.1274 0.016,-4.2465 0.008,-6.3735 -3.373,0.2117 -7.509,-0.8562 -10.118,1.907 z m 17.541998,11.1614 c -0.152,4.6355 -4.246,8.2969 -8.711998,8.7722 -4.425,0.4567 -9.432,0.4567 -13.086,-2.4753 -1.94,-1.4063 -2.558,-3.8223 -3.059,-6.0336 2.28,-0.0598 4.56,-0.068 6.847,-0.0512 1.297,3.8816 6.374,4.3734 9.424,2.3726 1.154,-0.9656 1.052,-2.5929 1.382,-3.9402 -4.779,-0.1871 -10.034,0.7371 -14.28,-2.0168 -4.042,-2.3738 -4.78,-8.1957 -2.432,-11.993 1.644,-2.466 4.857,-2.9238 7.593,-2.9156 5.458,-0.0254 10.915998,0.0094 16.373998,0 -0.051,6.1024 0.102,12.1965 -0.051,18.2809" /><path
       inkscape:connector-curvature="0"
       id="path28-5-1"
       style="fill:#94d222;fill-opacity:1;fill-rule:nonzero;stroke:none"
       d="m 421.66613,72.107206 c 0.03,-3.818 -5.0539,-6.1976 -7.9149,-3.6051 -2.9676,2.1215 -2.1265,7.2914 1.3574,8.3653 3.1141,1.2254 6.8,-1.4028 6.5575,-4.7602 z m -24.04769,-0.9617 c -0.6887,-3.3172 -5.1348,-4.9172 -7.7324,-2.6942 -3.0078,2.1215 -2.1672,7.393 1.3719,8.4512 3.4632,1.3371 7.4035,-2.1824 6.3605,-5.757 z m 26.53909,15.3582 c -9.9,5.5754 -22.23989,6.4156 -32.89419,2.5676 -6.998,-2.5223 -13.3379,-7.2063 -17.25231,-13.5867 -3.5492,-5.7524 -4.8817,-12.9278 -3.1649,-19.510203 1.7168,-7.307 6.7805,-13.4293 12.94811,-17.5211 -1.1598,-3.3727 -2.3043,-6.7449 -3.3824,-10.1422 3.8988,2.0258 7.7523,4.1375 11.6363,6.1985 4.684,-1.4997 9.6059,-2.2188 14.523,-2.061 -1.2812,3.7567 -1.5851,7.8031 -1.0027,11.7227 0.9317,5.4383 3.87349,10.4156 7.94019,14.107 6.8461,6.410503 16.5532,9.119503 25.7887,8.466803 -1.7258,8.4668 -7.6762,15.6269 -15.1398,19.7586" /><path
       inkscape:connector-curvature="0"
       id="path30-0-4"
       style="fill:#ffffff;fill-opacity:1;fill-rule:nonzero;stroke:none"
       d="m 450.06373,46.490003 c -0.998,-2.3301 -4.4871,-2.8656 -6.2086,-1.064 -0.8347,0.75 -1.0382,1.889 -1.3718,2.8964 0.4457,1.8129 1.6554,3.7024 3.716,3.7832 2.8515,0.3903 5.3527,-3.0687 3.8644,-5.6156 z m -19.0347,0.359 c -0.8204,-2.5871 -4.5926,-3.3672 -6.4059,-1.3922 -2.0055,1.818 -1.2254,5.6313 1.4023,6.441 2.9223,1.2309 6.2844,-2.1312 5.0036,-5.0488 z m 32.51909,2.0918 c -2.416,5.4734 -6.97809,9.808603 -12.26949,12.492203 -9.343,4.7394 -20.9688,4.7039 -30.2809,-0.1113 -6.4766,-3.326603 -11.8801,-9.282103 -13.41869,-16.528603 -1.2664,-5.332 -0.1274,-11.0742 2.69839,-15.7273 4.2129,-6.9836 11.8187,-11.4391 19.7336,-12.87189 5.7324,-1.1648 11.6566,-0.4816 17.2223,1.13949 3.3312,-1.302 6.3191,-3.39849 9.5543,-4.94806 -0.8297,2.79566 -1.7161,5.58086 -2.6727,8.33516 3.6202,2.5875 6.92219,5.7976 8.90719,9.8391 2.952,5.6253 3.128,12.5933 0.526,18.3812" /></g></svg>